<svg id="my-svg" width="100%" xmlns="http://www.w3.org/2000/svg" xmlns:xlink="http://www.w3.org/1999/xlink" style="max-width: 1144.46px; background-color: white;" viewBox="-8 -8 1144.45703125 1458.1875" role="graphics-document document" aria-roledescription="flowchart-v2"><style>#my-svg{font-family:"trebuchet ms",verdana,arial,sans-serif;font-size:16px;fill:#333;}#my-svg .error-icon{fill:#552222;}#my-svg .error-text{fill:#552222;stroke:#552222;}#my-svg .edge-thickness-normal{stroke-width:2px;}#my-svg .edge-thickness-thick{stroke-width:3.5px;}#my-svg .edge-pattern-solid{stroke-dasharray:0;}#my-svg .edge-pattern-dashed{stroke-dasharray:3;}#my-svg .edge-pattern-dotted{stroke-dasharray:2;}#my-svg .marker{fill:#333333;stroke:#333333;}#my-svg .marker.cross{stroke:#333333;}#my-svg svg{font-family:"trebuchet ms",verdana,arial,sans-serif;font-size:16px;}#my-svg .label{font-family:"trebuchet ms",verdana,arial,sans-serif;color:#333;}#my-svg .cluster-label text{fill:#333;}#my-svg .cluster-label span,#my-svg p{color:#333;}#my-svg .label text,#my-svg span,#my-svg p{fill:#333;color:#333;}#my-svg .node rect,#my-svg .node circle,#my-svg .node ellipse,#my-svg .node polygon,#my-svg .node path{fill:#ECECFF;stroke:#9370DB;stroke-width:1px;}#my-svg .flowchart-label text{text-anchor:middle;}#my-svg .node .katex path{fill:#000;stroke:#000;stroke-width:1px;}#my-svg .node .label{text-align:center;}#my-svg .node.clickable{cursor:pointer;}#my-svg .arrowheadPath{fill:#333333;}#my-svg .edgePath .path{stroke:#333333;stroke-width:2.0px;}#my-svg .flowchart-link{stroke:#333333;fill:none;}#my-svg .edgeLabel{background-color:#e8e8e8;text-align:center;}#my-svg .edgeLabel rect{opacity:0.5;background-color:#e8e8e8;fill:#e8e8e8;}#my-svg .labelBkg{background-color:rgba(232, 232, 232, 0.5);}#my-svg .cluster rect{fill:#ffffde;stroke:#aaaa33;stroke-width:1px;}#my-svg .cluster text{fill:#333;}#my-svg .cluster span,#my-svg p{color:#333;}#my-svg div.mermaidTooltip{position:absolute;text-align:center;max-width:200px;padding:2px;font-family:"trebuchet ms",verdana,arial,sans-serif;font-size:12px;background:hsl(80, 100%, 96.2745098039%);border:1px solid #aaaa33;border-radius:2px;pointer-events:none;z-index:100;}#my-svg .flowchartTitleText{text-anchor:middle;font-size:18px;fill:#333;}#my-svg :root{--mermaid-font-family:"trebuchet ms",verdana,arial,sans-serif;}</style><g><marker id="my-svg_flowchart-pointEnd" class="marker flowchart" viewBox="0 0 10 10" refX="6" refY="5" markerUnits="userSpaceOnUse" markerWidth="12" markerHeight="12" orient="auto"><path d="M 0 0 L 10 5 L 0 10 z" class="arrowMarkerPath" style="stroke-width: 1; stroke-dasharray: 1, 0;"/></marker><marker id="my-svg_flowchart-pointStart" class="marker flowchart" viewBox="0 0 10 10" refX="4.5" refY="5" markerUnits="userSpaceOnUse" markerWidth="12" markerHeight="12" orient="auto"><path d="M 0 5 L 10 10 L 10 0 z" class="arrowMarkerPath" style="stroke-width: 1; stroke-dasharray: 1, 0;"/></marker><marker id="my-svg_flowchart-circleEnd" class="marker flowchart" viewBox="0 0 10 10" refX="11" refY="5" markerUnits="userSpaceOnUse" markerWidth="11" markerHeight="11" orient="auto"><circle cx="5" cy="5" r="5" class="arrowMarkerPath" style="stroke-width: 1; stroke-dasharray: 1, 0;"/></marker><marker id="my-svg_flowchart-circleStart" class="marker flowchart" viewBox="0 0 10 10" refX="-1" refY="5" markerUnits="userSpaceOnUse" markerWidth="11" markerHeight="11" orient="auto"><circle cx="5" cy="5" r="5" class="arrowMarkerPath" style="stroke-width: 1; stroke-dasharray: 1, 0;"/></marker><marker id="my-svg_flowchart-crossEnd" class="marker cross flowchart" viewBox="0 0 11 11" refX="12" refY="5.2" markerUnits="userSpaceOnUse" markerWidth="11" markerHeight="11" orient="auto"><path d="M 1,1 l 9,9 M 10,1 l -9,9" class="arrowMarkerPath" style="stroke-width: 2; stroke-dasharray: 1, 0;"/></marker><marker id="my-svg_flowchart-crossStart" class="marker cross flowchart" viewBox="0 0 11 11" refX="-1" refY="5.2" markerUnits="userSpaceOnUse" markerWidth="11" markerHeight="11" orient="auto"><path d="M 1,1 l 9,9 M 10,1 l -9,9" class="arrowMarkerPath" style="stroke-width: 2; stroke-dasharray: 1, 0;"/></marker><g class="root"><g class="clusters"/><g class="edgePaths"><path d="M526.633,33L526.633,37.167C526.633,41.333,526.633,49.667,526.633,57.117C526.633,64.567,526.633,71.133,526.633,74.417L526.633,77.7" id="L-A-B-0" class="edge-thickness-normal edge-pattern-solid flowchart-link LS-A LE-B" style="fill:none;" marker-end="url(#my-svg_flowchart-pointEnd)"/><path d="M526.633,116L526.633,120.167C526.633,124.333,526.633,132.667,526.633,140.117C526.633,147.567,526.633,154.133,526.633,157.417L526.633,160.7" id="L-B-B1-0" class="edge-thickness-normal edge-pattern-solid flowchart-link LS-B LE-B1" style="fill:none;" marker-end="url(#my-svg_flowchart-pointEnd)"/><path d="M526.633,202L526.633,206.167C526.633,210.333,526.633,218.667,526.633,226.117C526.633,233.567,526.633,240.133,526.633,243.417L526.633,246.7" id="L-B1-B2-0" class="edge-thickness-normal edge-pattern-solid flowchart-link LS-B1 LE-B2" style="fill:none;" marker-end="url(#my-svg_flowchart-pointEnd)"/><path d="M526.633,285L526.633,289.167C526.633,293.333,526.633,301.667,526.633,309.117C526.633,316.567,526.633,323.133,526.633,326.417L526.633,329.7" id="L-B2-B3-0" class="edge-thickness-normal edge-pattern-solid flowchart-link LS-B2 LE-B3" style="fill:none;" marker-end="url(#my-svg_flowchart-pointEnd)"/><path d="M526.633,368L526.633,372.167C526.633,376.333,526.633,384.667,526.633,392.117C526.633,399.567,526.633,406.133,526.633,409.417L526.633,412.7" id="L-B3-B4-0" class="edge-thickness-normal edge-pattern-solid flowchart-link LS-B3 LE-B4" style="fill:none;" marker-end="url(#my-svg_flowchart-pointEnd)"/><path d="M526.633,451L526.633,455.167C526.633,459.333,526.633,467.667,526.633,475.117C526.633,482.567,526.633,489.133,526.633,492.417L526.633,495.7" id="L-B4-B5-0" class="edge-thickness-normal edge-pattern-solid flowchart-link LS-B4 LE-B5" style="fill:none;" marker-end="url(#my-svg_flowchart-pointEnd)"/><path d="M526.633,534L526.633,538.167C526.633,542.333,526.633,550.667,526.633,558.117C526.633,565.567,526.633,572.133,526.633,575.417L526.633,578.7" id="L-B5-B6-0" class="edge-thickness-normal edge-pattern-solid flowchart-link LS-B5 LE-B6" style="fill:none;" marker-end="url(#my-svg_flowchart-pointEnd)"/><path d="M526.633,620L526.633,624.167C526.633,628.333,526.633,636.667,526.633,644.117C526.633,651.567,526.633,658.133,526.633,661.417L526.633,664.7" id="L-B6-C-0" class="edge-thickness-normal edge-pattern-solid flowchart-link LS-B6 LE-C" style="fill:none;" marker-end="url(#my-svg_flowchart-pointEnd)"/><path d="M455.094,700.082L430.585,704.735C406.077,709.388,357.06,718.694,332.551,736.704C308.043,754.714,308.043,781.427,308.043,809.641C308.043,837.854,308.043,867.568,309.799,887.261C311.555,906.954,315.066,916.627,316.822,921.463L318.578,926.299" id="L-C-C1-0" class="edge-thickness-normal edge-pattern-solid flowchart-link LS-C LE-C1" style="fill:none;" marker-end="url(#my-svg_flowchart-pointEnd)"/><path d="M326.922,967.281L326.922,971.448C326.922,975.615,326.922,983.948,326.922,991.398C326.922,998.848,326.922,1005.415,326.922,1008.698L326.922,1011.981" id="L-C1-C2-0" class="edge-thickness-normal edge-pattern-solid flowchart-link LS-C1 LE-C2" style="fill:none;" marker-end="url(#my-svg_flowchart-pointEnd)"/><path d="M261.625,1047.56L226.418,1054.18C191.211,1060.8,120.797,1074.041,85.59,1085.444C50.383,1096.848,50.383,1106.415,50.383,1111.198L50.383,1115.981" id="L-C2-CEND-0" class="edge-thickness-normal edge-pattern-solid flowchart-link LS-C2 LE-CEND" style="fill:none;" marker-end="url(#my-svg_flowchart-pointEnd)"/><path d="M392.219,1052.283L414.621,1058.116C437.023,1063.949,481.828,1075.615,504.23,1086.482C526.633,1097.348,526.633,1107.415,526.633,1112.448L526.633,1117.481" id="L-C2-C3-0" class="edge-thickness-normal edge-pattern-solid flowchart-link LS-C2 LE-C3" style="fill:none;" marker-end="url(#my-svg_flowchart-pointEnd)"/><path d="M526.633,1155.781L526.633,1160.198C526.633,1164.615,526.633,1173.448,526.699,1181.231C526.765,1189.015,526.897,1195.749,526.963,1199.115L527.029,1202.482" id="L-C3-D1-0" class="edge-thickness-normal edge-pattern-solid flowchart-link LS-C3 LE-D1" style="fill:none;" marker-end="url(#my-svg_flowchart-pointEnd)"/><path d="M487.826,1260.38L414.002,1272.765C340.178,1285.149,192.53,1309.918,120.994,1327.413C49.457,1344.908,54.031,1355.129,56.319,1360.239L58.606,1365.35" id="L-D1-E1-0" class="edge-thickness-normal edge-pattern-solid flowchart-link LS-D1 LE-E1" style="fill:none;" marker-end="url(#my-svg_flowchart-pointEnd)"/><path d="M491.662,1264.217L451.555,1275.962C411.447,1287.707,331.231,1311.197,306.212,1331.426C281.194,1351.655,311.371,1368.622,326.46,1377.106L341.549,1385.59" id="L-D1-E2-0" class="edge-thickness-normal edge-pattern-solid flowchart-link LS-D1 LE-E2" style="fill:none;" marker-end="url(#my-svg_flowchart-pointEnd)"/><path d="M527.133,1299.688L527.049,1305.521C526.966,1311.354,526.799,1323.021,532.411,1337.046C538.022,1351.07,549.412,1367.453,555.106,1375.644L560.801,1383.836" id="L-D1-E3-0" class="edge-thickness-normal edge-pattern-solid flowchart-link LS-D1 LE-E3" style="fill:none;" marker-end="url(#my-svg_flowchart-pointEnd)"/><path d="M557.257,1269.563L577.99,1280.417C598.722,1291.271,640.187,1312.979,668.203,1332.329C696.22,1351.68,710.787,1368.672,718.071,1377.168L725.354,1385.664" id="L-D1-E4-0" class="edge-thickness-normal edge-pattern-solid flowchart-link LS-D1 LE-E4" style="fill:none;" marker-end="url(#my-svg_flowchart-pointEnd)"/><path d="M563.684,1263.136L610.286,1275.061C656.888,1286.987,750.093,1310.837,801.463,1328.024C852.833,1345.212,862.368,1355.736,867.136,1360.998L871.904,1366.26" id="L-D1-E5-0" class="edge-thickness-normal edge-pattern-solid flowchart-link LS-D1 LE-E5" style="fill:none;" marker-end="url(#my-svg_flowchart-pointEnd)"/><path d="M566.442,1260.379L640.121,1272.764C713.801,1285.148,861.16,1309.918,942.284,1330.563C1023.409,1351.208,1038.298,1367.729,1045.742,1375.99L1053.187,1384.25" id="L-D1-E6-0" class="edge-thickness-normal edge-pattern-solid flowchart-link LS-D1 LE-E6" style="fill:none;" marker-end="url(#my-svg_flowchart-pointEnd)"/><path d="M92.995,1370.188L95.643,1364.271C98.291,1358.354,103.587,1346.521,106.235,1327.029C108.883,1307.536,108.883,1280.385,108.883,1254.984C108.883,1229.583,108.883,1205.932,108.883,1186.94C108.883,1167.948,108.883,1153.615,108.883,1137.781C108.883,1121.948,108.883,1104.615,108.883,1087.281C108.883,1069.948,108.883,1052.615,108.883,1036.781C108.883,1020.948,108.883,1006.615,108.883,992.281C108.883,977.948,108.883,963.615,108.883,947.781C108.883,931.948,108.883,914.615,108.883,891.091C108.883,867.568,108.883,837.854,108.883,809.641C108.883,781.427,108.883,754.714,165.706,735.712C222.528,716.71,336.174,705.42,392.997,699.776L449.82,694.131" id="L-E1-C-0" class="edge-thickness-normal edge-pattern-solid flowchart-link LS-E1 LE-C" style="fill:none;" marker-end="url(#my-svg_flowchart-pointEnd)"/><path d="M390.528,1388.188L396.643,1379.271C402.758,1370.354,414.989,1352.521,421.104,1330.029C427.219,1307.536,427.219,1280.385,427.219,1254.984C427.219,1229.583,427.219,1205.932,427.219,1186.94C427.219,1167.948,427.219,1153.615,427.219,1137.781C427.219,1121.948,427.219,1104.615,427.219,1087.281C427.219,1069.948,427.219,1052.615,427.219,1036.781C427.219,1020.948,427.219,1006.615,427.219,992.281C427.219,977.948,427.219,963.615,427.219,947.781C427.219,931.948,427.219,914.615,427.219,891.091C427.219,867.568,427.219,837.854,427.219,809.641C427.219,781.427,427.219,754.714,436.385,737.53C445.551,720.347,463.883,712.694,473.05,708.868L482.216,705.042" id="L-E2-C-0" class="edge-thickness-normal edge-pattern-solid flowchart-link LS-E2 LE-C" style="fill:none;" marker-end="url(#my-svg_flowchart-pointEnd)"/><path d="M591.771,1388.188L599.415,1379.271C607.06,1370.354,622.348,1352.521,629.992,1330.029C637.637,1307.536,637.637,1280.385,637.637,1254.984C637.637,1229.583,637.637,1205.932,637.637,1186.94C637.637,1167.948,637.637,1153.615,637.637,1137.781C637.637,1121.948,637.637,1104.615,637.637,1087.281C637.637,1069.948,637.637,1052.615,637.637,1036.781C637.637,1020.948,637.637,1006.615,637.637,992.281C637.637,977.948,637.637,963.615,637.637,947.781C637.637,931.948,637.637,914.615,637.637,891.091C637.637,867.568,637.637,837.854,637.637,809.641C637.637,781.427,637.637,754.714,627.319,737.499C617.002,720.285,596.366,712.571,586.049,708.713L575.731,704.856" id="L-E3-C-0" class="edge-thickness-normal edge-pattern-solid flowchart-link LS-E3 LE-C" style="fill:none;" marker-end="url(#my-svg_flowchart-pointEnd)"/><path d="M757.9,1389.688L766.205,1380.521C774.511,1371.354,791.123,1353.021,799.429,1330.279C807.734,1307.536,807.734,1280.385,807.734,1254.984C807.734,1229.583,807.734,1205.932,807.734,1186.94C807.734,1167.948,807.734,1153.615,807.734,1137.781C807.734,1121.948,807.734,1104.615,807.734,1087.281C807.734,1069.948,807.734,1052.615,807.734,1036.781C807.734,1020.948,807.734,1006.615,807.734,992.281C807.734,977.948,807.734,963.615,807.734,947.781C807.734,931.948,807.734,914.615,807.734,891.091C807.734,867.568,807.734,837.854,807.734,809.641C807.734,781.427,807.734,754.714,773.681,736.329C739.628,717.945,671.521,707.89,637.468,702.863L603.415,697.836" id="L-E4-C-0" class="edge-thickness-normal edge-pattern-solid flowchart-link LS-E4 LE-C" style="fill:none;" marker-end="url(#my-svg_flowchart-pointEnd)"/><path d="M940.526,1370.188L945.858,1364.271C951.191,1358.354,961.855,1346.521,967.187,1327.029C972.52,1307.536,972.52,1280.385,972.52,1254.984C972.52,1229.583,972.52,1205.932,972.52,1186.94C972.52,1167.948,972.52,1153.615,972.52,1137.781C972.52,1121.948,972.52,1104.615,972.52,1087.281C972.52,1069.948,972.52,1052.615,972.52,1036.781C972.52,1020.948,972.52,1006.615,972.52,992.281C972.52,977.948,972.52,963.615,972.52,947.781C972.52,931.948,972.52,914.615,972.52,891.091C972.52,867.568,972.52,837.854,972.52,809.641C972.52,781.427,972.52,754.714,911.008,735.632C849.496,716.55,726.473,705.1,664.961,699.375L603.449,693.65" id="L-E5-C-0" class="edge-thickness-normal edge-pattern-solid flowchart-link LS-E5 LE-C" style="fill:none;" marker-end="url(#my-svg_flowchart-pointEnd)"/><path d="M1077.488,1388.188L1079.733,1379.271C1081.978,1370.354,1086.468,1352.521,1088.712,1330.029C1090.957,1307.536,1090.957,1280.385,1090.957,1254.984C1090.957,1229.583,1090.957,1205.932,1090.957,1186.94C1090.957,1167.948,1090.957,1153.615,1090.957,1137.781C1090.957,1121.948,1090.957,1104.615,1090.957,1087.281C1090.957,1069.948,1090.957,1052.615,1090.957,1036.781C1090.957,1020.948,1090.957,1006.615,1090.957,992.281C1090.957,977.948,1090.957,963.615,1090.957,947.781C1090.957,931.948,1090.957,914.615,1090.957,891.091C1090.957,867.568,1090.957,837.854,1090.957,809.641C1090.957,781.427,1090.957,754.714,1009.707,735.382C928.457,716.05,765.957,704.1,684.708,698.125L603.458,692.15" id="L-E6-C-0" class="edge-thickness-normal edge-pattern-solid flowchart-link LS-E6 LE-C" style="fill:none;" marker-end="url(#my-svg_flowchart-pointEnd)"/><path d="M455.094,695.562L412.415,700.969C369.737,706.375,284.38,717.187,241.768,725.961C199.155,734.734,199.288,741.467,199.354,744.834L199.42,748.201" id="L-C-F-0" class="edge-thickness-normal edge-pattern-solid flowchart-link LS-C LE-F" style="fill:none;" marker-end="url(#my-svg_flowchart-pointEnd)"/><path d="M235.026,828.279L255.884,839.779C276.743,851.28,318.459,874.28,336.17,890.703C353.88,907.126,347.584,916.971,344.436,921.894L341.288,926.816" id="L-F-C1-0" class="edge-thickness-normal edge-pattern-solid flowchart-link LS-F LE-C1" style="fill:none;" marker-end="url(#my-svg_flowchart-pointEnd)"/><path d="M199.523,863.781L199.44,869.365C199.357,874.948,199.19,886.115,199.107,896.481C199.023,906.848,199.023,916.415,199.023,921.198L199.023,925.981" id="L-F-G-0" class="edge-thickness-normal edge-pattern-solid flowchart-link LS-F LE-G" style="fill:none;" marker-end="url(#my-svg_flowchart-pointEnd)"/></g><g class="edgeLabels"><g class="edgeLabel"><g class="label" transform="translate(0, 0)"><foreignObject width="0" height="0"><div xmlns="http://www.w3.org/1999/xhtml" style="display: inline-block; white-space: nowrap;"><span class="edgeLabel"></span></div></foreignObject></g></g><g class="edgeLabel"><g class="label" transform="translate(0, 0)"><foreignObject width="0" height="0"><div xmlns="http://www.w3.org/1999/xhtml" style="display: inline-block; white-space: nowrap;"><span class="edgeLabel"></span></div></foreignObject></g></g><g class="edgeLabel"><g class="label" transform="translate(0, 0)"><foreignObject width="0" height="0"><div xmlns="http://www.w3.org/1999/xhtml" style="display: inline-block; white-space: nowrap;"><span class="edgeLabel"></span></div></foreignObject></g></g><g class="edgeLabel"><g class="label" transform="translate(0, 0)"><foreignObject width="0" height="0"><div xmlns="http://www.w3.org/1999/xhtml" style="display: inline-block; white-space: nowrap;"><span class="edgeLabel"></span></div></foreignObject></g></g><g class="edgeLabel"><g class="label" transform="translate(0, 0)"><foreignObject width="0" height="0"><div xmlns="http://www.w3.org/1999/xhtml" style="display: inline-block; white-space: nowrap;"><span class="edgeLabel"></span></div></foreignObject></g></g><g class="edgeLabel"><g class="label" transform="translate(0, 0)"><foreignObject width="0" height="0"><div xmlns="http://www.w3.org/1999/xhtml" style="display: inline-block; white-space: nowrap;"><span class="edgeLabel"></span></div></foreignObject></g></g><g class="edgeLabel"><g class="label" transform="translate(0, 0)"><foreignObject width="0" height="0"><div xmlns="http://www.w3.org/1999/xhtml" style="display: inline-block; white-space: nowrap;"><span class="edgeLabel"></span></div></foreignObject></g></g><g class="edgeLabel"><g class="label" transform="translate(0, 0)"><foreignObject width="0" height="0"><div xmlns="http://www.w3.org/1999/xhtml" style="display: inline-block; white-space: nowrap;"><span class="edgeLabel"></span></div></foreignObject></g></g><g class="edgeLabel"><g class="label" transform="translate(0, 0)"><foreignObject width="0" height="0"><div xmlns="http://www.w3.org/1999/xhtml" style="display: inline-block; white-space: nowrap;"><span class="edgeLabel"></span></div></foreignObject></g></g><g class="edgeLabel"><g class="label" transform="translate(0, 0)"><foreignObject width="0" height="0"><div xmlns="http://www.w3.org/1999/xhtml" style="display: inline-block; white-space: nowrap;"><span class="edgeLabel"></span></div></foreignObject></g></g><g class="edgeLabel" transform="translate(50.3828125, 1087.28125)"><g class="label" transform="translate(-16.4453125, -9)"><foreignObject width="32.890625" height="18"><div xmlns="http://www.w3.org/1999/xhtml" style="display: inline-block; white-space: nowrap;"><span class="edgeLabel">EOF</span></div></foreignObject></g></g><g class="edgeLabel"><g class="label" transform="translate(0, 0)"><foreignObject width="0" height="0"><div xmlns="http://www.w3.org/1999/xhtml" style="display: inline-block; white-space: nowrap;"><span class="edgeLabel"></span></div></foreignObject></g></g><g class="edgeLabel"><g class="label" transform="translate(0, 0)"><foreignObject width="0" height="0"><div xmlns="http://www.w3.org/1999/xhtml" style="display: inline-block; white-space: nowrap;"><span class="edgeLabel"></span></div></foreignObject></g></g><g class="edgeLabel" transform="translate(44.8828125, 1334.6875)"><g class="label" transform="translate(-44, -10.5)"><foreignObject width="88" height="21"><div xmlns="http://www.w3.org/1999/xhtml" style="display: inline-block; white-space: nowrap;"><span class="edgeLabel">1 (开始游戏)</span></div></foreignObject></g></g><g class="edgeLabel" transform="translate(251.015625, 1334.6875)"><g class="label" transform="translate(-44, -10.5)"><foreignObject width="88" height="21"><div xmlns="http://www.w3.org/1999/xhtml" style="display: inline-block; white-space: nowrap;"><span class="edgeLabel">2 (继续征途)</span></div></foreignObject></g></g><g class="edgeLabel" transform="translate(526.6328125, 1334.6875)"><g class="label" transform="translate(-26.2421875, -9)"><foreignObject width="52.484375" height="18"><div xmlns="http://www.w3.org/1999/xhtml" style="display: inline-block; white-space: nowrap;"><span class="edgeLabel">help / 4</span></div></foreignObject></g></g><g class="edgeLabel" transform="translate(681.65234375, 1334.6875)"><g class="label" transform="translate(-24.015625, -9)"><foreignObject width="48.03125" height="18"><div xmlns="http://www.w3.org/1999/xhtml" style="display: inline-block; white-space: nowrap;"><span class="edgeLabel">quit / 3</span></div></foreignObject></g></g><g class="edgeLabel" transform="translate(843.296875, 1334.6875)"><g class="label" transform="translate(-15.5625, -9)"><foreignObject width="31.125" height="18"><div xmlns="http://www.w3.org/1999/xhtml" style="display: inline-block; white-space: nowrap;"><span class="edgeLabel">start</span></div></foreignObject></g></g><g class="edgeLabel" transform="translate(1008.51953125, 1334.6875)"><g class="label" transform="translate(-16, -10.5)"><foreignObject width="32" height="21"><div xmlns="http://www.w3.org/1999/xhtml" style="display: inline-block; white-space: nowrap;"><span class="edgeLabel">其他</span></div></foreignObject></g></g><g class="edgeLabel"><g class="label" transform="translate(0, 0)"><foreignObject width="0" height="0"><div xmlns="http://www.w3.org/1999/xhtml" style="display: inline-block; white-space: nowrap;"><span class="edgeLabel"></span></div></foreignObject></g></g><g class="edgeLabel"><g class="label" transform="translate(0, 0)"><foreignObject width="0" height="0"><div xmlns="http://www.w3.org/1999/xhtml" style="display: inline-block; white-space: nowrap;"><span class="edgeLabel"></span></div></foreignObject></g></g><g class="edgeLabel"><g class="label" transform="translate(0, 0)"><foreignObject width="0" height="0"><div xmlns="http://www.w3.org/1999/xhtml" style="display: inline-block; white-space: nowrap;"><span class="edgeLabel"></span></div></foreignObject></g></g><g class="edgeLabel"><g class="label" transform="translate(0, 0)"><foreignObject width="0" height="0"><div xmlns="http://www.w3.org/1999/xhtml" style="display: inline-block; white-space: nowrap;"><span class="edgeLabel"></span></div></foreignObject></g></g><g class="edgeLabel"><g class="label" transform="translate(0, 0)"><foreignObject width="0" height="0"><div xmlns="http://www.w3.org/1999/xhtml" style="display: inline-block; white-space: nowrap;"><span class="edgeLabel"></span></div></foreignObject></g></g><g class="edgeLabel"><g class="label" transform="translate(0, 0)"><foreignObject width="0" height="0"><div xmlns="http://www.w3.org/1999/xhtml" style="display: inline-block; white-space: nowrap;"><span class="edgeLabel"></span></div></foreignObject></g></g><g class="edgeLabel"><g class="label" transform="translate(0, 0)"><foreignObject width="0" height="0"><div xmlns="http://www.w3.org/1999/xhtml" style="display: inline-block; white-space: nowrap;"><span class="edgeLabel"></span></div></foreignObject></g></g><g class="edgeLabel" transform="translate(360.17578125, 897.28125)"><g class="label" transform="translate(-13.7890625, -9)"><foreignObject width="27.578125" height="18"><div xmlns="http://www.w3.org/1999/xhtml" style="display: inline-block; white-space: nowrap;"><span class="edgeLabel">true</span></div></foreignObject></g></g><g class="edgeLabel" transform="translate(199.0234375, 897.28125)"><g class="label" transform="translate(-16.8984375, -9)"><foreignObject width="33.796875" height="18"><div xmlns="http://www.w3.org/1999/xhtml" style="display: inline-block; white-space: nowrap;"><span class="edgeLabel">false</span></div></foreignObject></g></g></g><g class="nodes"><g class="node default default flowchart-label" id="flowchart-A-0" data-node="true" data-id="A" transform="translate(526.6328125, 16.5)"><rect class="basic label-container" style="" rx="0" ry="0" x="-24.84375" y="-16.5" width="49.6875" height="33"/><g class="label" style="" transform="translate(-17.34375, -9)"><rect/><foreignObject width="34.6875" height="18"><div xmlns="http://www.w3.org/1999/xhtml" style="display: inline-block; white-space: nowrap;"><span class="nodeLabel">main</span></div></foreignObject></g></g><g class="node default default flowchart-label" id="flowchart-B-1" data-node="true" data-id="B" transform="translate(526.6328125, 99.5)"><rect class="basic label-container" style="" rx="0" ry="0" x="-45.296875" y="-16.5" width="90.59375" height="33"/><g class="label" style="" transform="translate(-37.796875, -9)"><rect/><foreignObject width="75.59375" height="18"><div xmlns="http://www.w3.org/1999/xhtml" style="display: inline-block; white-space: nowrap;"><span class="nodeLabel">Game::run</span></div></foreignObject></g></g><g class="node default default flowchart-label" id="flowchart-B1-3" data-node="true" data-id="B1" transform="translate(526.6328125, 184)"><rect class="basic label-container" style="" rx="0" ry="0" x="-91.96875" y="-18" width="183.9375" height="36"/><g class="label" style="" transform="translate(-84.46875, -10.5)"><rect/><foreignObject width="168.9375" height="21"><div xmlns="http://www.w3.org/1999/xhtml" style="display: inline-block; white-space: nowrap;"><span class="nodeLabel">console::init 编码初始化</span></div></foreignObject></g></g><g class="node default default flowchart-label" id="flowchart-B2-5" data-node="true" data-id="B2" transform="translate(526.6328125, 268.5)"><rect class="basic label-container" style="" rx="0" ry="0" x="-62.1875" y="-16.5" width="124.375" height="33"/><g class="label" style="" transform="translate(-54.6875, -9)"><rect/><foreignObject width="109.375" height="18"><div xmlns="http://www.w3.org/1999/xhtml" style="display: inline-block; white-space: nowrap;"><span class="nodeLabel">Game::initialize</span></div></foreignObject></g></g><g class="node default default flowchart-label" id="flowchart-B3-7" data-node="true" data-id="B3" transform="translate(526.6328125, 351.5)"><rect class="basic label-container" style="" rx="0" ry="0" x="-145.3671875" y="-16.5" width="290.734375" height="33"/><g class="label" style="" transform="translate(-137.8671875, -9)"><rect/><foreignObject width="275.734375" height="18"><div xmlns="http://www.w3.org/1999/xhtml" style="display: inline-block; white-space: nowrap;"><span class="nodeLabel">DataLoader::loadGameData data/core/</span></div></foreignObject></g></g><g class="node default default flowchart-label" id="flowchart-B4-9" data-node="true" data-id="B4" transform="translate(526.6328125, 434.5)"><rect class="basic label-container" style="" rx="0" ry="0" x="-148.484375" y="-16.5" width="296.96875" height="33"/><g class="label" style="" transform="translate(-140.984375, -9)"><rect/><foreignObject width="281.96875" height="18"><div xmlns="http://www.w3.org/1999/xhtml" style="display: inline-block; white-space: nowrap;"><span class="nodeLabel">DataLoader::loadCombatant player.json</span></div></foreignObject></g></g><g class="node default default flowchart-label" id="flowchart-B5-11" data-node="true" data-id="B5" transform="translate(526.6328125, 517.5)"><rect class="basic label-container" style="" rx="0" ry="0" x="-166.2734375" y="-16.5" width="332.546875" height="33"/><g class="label" style="" transform="translate(-158.7734375, -9)"><rect/><foreignObject width="317.546875" height="18"><div xmlns="http://www.w3.org/1999/xhtml" style="display: inline-block; white-space: nowrap;"><span class="nodeLabel">DataLoader::loadCombatant companion.json</span></div></foreignObject></g></g><g class="node default default flowchart-label" id="flowchart-B6-13" data-node="true" data-id="B6" transform="translate(526.6328125, 602)"><rect class="basic label-container" style="" rx="0" ry="0" x="-93.59375" y="-18" width="187.1875" height="36"/><g class="label" style="" transform="translate(-86.09375, -10.5)"><rect/><foreignObject width="172.1875" height="21"><div xmlns="http://www.w3.org/1999/xhtml" style="display: inline-block; white-space: nowrap;"><span class="nodeLabel">showWelcome 欢迎界面</span></div></foreignObject></g></g><g class="node default default flowchart-label" id="flowchart-C-15" data-node="true" data-id="C" transform="translate(526.6328125, 686.5)"><rect class="basic label-container" style="" rx="0" ry="0" x="-71.5390625" y="-16.5" width="143.078125" height="33"/><g class="label" style="" transform="translate(-64.0390625, -9)"><rect/><foreignObject width="128.078125" height="18"><div xmlns="http://www.w3.org/1999/xhtml" style="display: inline-block; white-space: nowrap;"><span class="nodeLabel">Game::gameLoop</span></div></foreignObject></g></g><g class="node default default flowchart-label" id="flowchart-C1-17" data-node="true" data-id="C1" transform="translate(326.921875, 949.28125)"><rect class="basic label-container" style="" rx="0" ry="0" x="-54.3984375" y="-18" width="108.796875" height="36"/><g class="label" style="" transform="translate(-46.8984375, -10.5)"><rect/><foreignObject width="93.796875" height="21"><div xmlns="http://www.w3.org/1999/xhtml" style="display: inline-block; white-space: nowrap;"><span class="nodeLabel">输出提示符 &gt;</span></div></foreignObject></g></g><g class="node default default flowchart-label" id="flowchart-C2-19" data-node="true" data-id="C2" transform="translate(326.921875, 1035.28125)"><rect class="basic label-container" style="" rx="0" ry="0" x="-65.296875" y="-18" width="130.59375" height="36"/><g class="label" style="" transform="translate(-57.796875, -10.5)"><rect/><foreignObject width="115.59375" height="21"><div xmlns="http://www.w3.org/1999/xhtml" style="display: inline-block; white-space: nowrap;"><span class="nodeLabel">getline 读取指令</span></div></foreignObject></g></g><g class="node default default flowchart-label" id="flowchart-CEND-21" data-node="true" data-id="CEND" transform="translate(50.3828125, 1139.28125)"><rect class="basic label-container" style="" rx="0" ry="0" x="-23.5" y="-18" width="47" height="36"/><g class="label" style="" transform="translate(-16, -10.5)"><rect/><foreignObject width="32" height="21"><div xmlns="http://www.w3.org/1999/xhtml" style="display: inline-block; white-space: nowrap;"><span class="nodeLabel">退出</span></div></foreignObject></g></g><g class="node default default flowchart-label" id="flowchart-C3-23" data-node="true" data-id="C3" transform="translate(526.6328125, 1139.28125)"><rect class="basic label-container" style="" rx="0" ry="0" x="-64.4140625" y="-16.5" width="128.828125" height="33"/><g class="label" style="" transform="translate(-56.9140625, -9)"><rect/><foreignObject width="113.828125" height="18"><div xmlns="http://www.w3.org/1999/xhtml" style="display: inline-block; white-space: nowrap;"><span class="nodeLabel">gameCommand</span></div></foreignObject></g></g><g class="node default default flowchart-label" id="flowchart-D1-25" data-node="true" data-id="D1" transform="translate(526.6328125, 1253.234375)"><polygon points="45.953125,0 91.90625,-45.953125 45.953125,-91.90625 0,-45.953125" class="label-container" transform="translate(-45.953125,45.953125)" style=""/><g class="label" style="" transform="translate(-20.453125, -10.5)"><rect/><foreignObject width="40.90625" height="21"><div xmlns="http://www.w3.org/1999/xhtml" style="display: inline-block; white-space: nowrap;"><span class="nodeLabel">指令?</span></div></foreignObject></g></g><g class="node default default flowchart-label" id="flowchart-E1-27" data-node="true" data-id="E1" transform="translate(76.8828125, 1406.1875)"><rect class="basic label-container" style="" rx="0" ry="0" x="-76.8828125" y="-36" width="153.765625" height="72"/><g class="label" style="" transform="translate(-69.3828125, -28.5)"><rect/><foreignObject width="138.765625" height="57"><div xmlns="http://www.w3.org/1999/xhtml" style="display: inline-block; white-space: nowrap;"><span class="nodeLabel">scene_id=1<br />world 重置<br />ShowBackground 1</span></div></foreignObject></g></g><g class="node default default flowchart-label" id="flowchart-E2-29" data-node="true" data-id="E2" transform="translate(378.18359375, 1406.1875)"><rect class="basic label-container" style="" rx="0" ry="0" x="-86.6328125" y="-18" width="173.265625" height="36"/><g class="label" style="" transform="translate(-79.1328125, -10.5)"><rect/><foreignObject width="158.265625" height="21"><div xmlns="http://www.w3.org/1999/xhtml" style="display: inline-block; white-space: nowrap;"><span class="nodeLabel">saveMenu 存读档界面</span></div></foreignObject></g></g><g class="node default default flowchart-label" id="flowchart-E3-31" data-node="true" data-id="E3" transform="translate(576.33984375, 1406.1875)"><rect class="basic label-container" style="" rx="0" ry="0" x="-60.8515625" y="-18" width="121.703125" height="36"/><g class="label" style="" transform="translate(-53.3515625, -10.5)"><rect/><foreignObject width="106.703125" height="21"><div xmlns="http://www.w3.org/1999/xhtml" style="display: inline-block; white-space: nowrap;"><span class="nodeLabel">showHelp 帮助</span></div></foreignObject></g></g><g class="node default default flowchart-label" id="flowchart-E4-33" data-node="true" data-id="E4" transform="translate(742.94921875, 1406.1875)"><rect class="basic label-container" style="" rx="0" ry="0" x="-55.7578125" y="-16.5" width="111.515625" height="33"/><g class="label" style="" transform="translate(-48.2578125, -9)"><rect/><foreignObject width="96.515625" height="18"><div xmlns="http://www.w3.org/1999/xhtml" style="display: inline-block; white-space: nowrap;"><span class="nodeLabel">running=false</span></div></foreignObject></g></g><g class="node default default flowchart-label" id="flowchart-E5-35" data-node="true" data-id="E5" transform="translate(908.08203125, 1406.1875)"><rect class="basic label-container" style="" rx="0" ry="0" x="-59.375" y="-36" width="118.75" height="72"/><g class="label" style="" transform="translate(-51.875, -28.5)"><rect/><foreignObject width="103.75" height="57"><div xmlns="http://www.w3.org/1999/xhtml" style="display: inline-block; white-space: nowrap;"><span class="nodeLabel">scene_id=0<br />离开地图<br />showWelcome</span></div></foreignObject></g></g><g class="node default default flowchart-label" id="flowchart-E6-37" data-node="true" data-id="E6" transform="translate(1072.95703125, 1406.1875)"><rect class="basic label-container" style="" rx="0" ry="0" x="-55.5" y="-18" width="111" height="36"/><g class="label" style="" transform="translate(-48, -10.5)"><rect/><foreignObject width="96" height="21"><div xmlns="http://www.w3.org/1999/xhtml" style="display: inline-block; white-space: nowrap;"><span class="nodeLabel">未知指令提示</span></div></foreignObject></g></g><g class="node default default flowchart-label" id="flowchart-F-51" data-node="true" data-id="F" transform="translate(199.0234375, 808.140625)"><polygon points="55.140625,0 110.28125,-55.140625 55.140625,-110.28125 0,-55.140625" class="label-container" transform="translate(-55.140625,55.140625)" style=""/><g class="label" style="" transform="translate(-31.140625, -9)"><rect/><foreignObject width="62.28125" height="18"><div xmlns="http://www.w3.org/1999/xhtml" style="display: inline-block; white-space: nowrap;"><span class="nodeLabel">running?</span></div></foreignObject></g></g><g class="node default default flowchart-label" id="flowchart-G-55" data-node="true" data-id="G" transform="translate(199.0234375, 949.28125)"><rect class="basic label-container" style="" rx="0" ry="0" x="-23.5" y="-18" width="47" height="36"/><g class="label" style="" transform="translate(-16, -10.5)"><rect/><foreignObject width="32" height="21"><div xmlns="http://www.w3.org/1999/xhtml" style="display: inline-block; white-space: nowrap;"><span class="nodeLabel">结束</span></div></foreignObject></g></g></g></g></g></svg>